<svg width="24" height="25" viewBox="0 0 24 25" fill="none" xmlns="http://www.w3.org/2000/svg">
<path opacity="0.75" fill-rule="evenodd" clip-rule="evenodd" d="M8 6.1875C6.34315 6.1875 5 7.53065 5 9.1875V17.1875C5 15.5306 6.34315 14.1875 8 14.1875H16C17.6569 14.1875 19 15.5306 19 17.1875V9.1875C19 7.53065 17.6569 6.1875 16 6.1875H8Z" fill="#FF9500"/>
<path opacity="0.5" d="M5 17.1875C5 15.5306 6.34315 14.1875 8 14.1875H16C17.6569 14.1875 19 15.5306 19 17.1875V19.1875C19 20.8444 17.6569 22.1875 16 22.1875H8C6.34315 22.1875 5 20.8444 5 19.1875V17.1875Z" fill="#FF9500"/>
<path fill-rule="evenodd" clip-rule="evenodd" d="M8 6.1875C8 3.97836 9.79086 2.1875 12 2.1875C14.2091 2.1875 16 3.97836 16 6.1875H14C14 5.08293 13.1046 4.1875 12 4.1875C10.8954 4.1875 10 5.08293 10 6.1875H8ZM5 11.3584C3.83481 11.7702 3 12.8815 3 14.1877V18.1877C3 19.2923 3.89543 20.1877 5 20.1877H5.17071C5.06015 19.8749 5 19.5383 5 19.1877V11.3584ZM18.8293 20.1877H19C20.1046 20.1877 21 19.2923 21 18.1877V14.1877C21 12.8815 20.1652 11.7702 19 11.3584V19.1877C19 19.5383 18.9398 19.8749 18.8293 20.1877ZM11 8.1875C10.4477 8.1875 10 8.63522 10 9.1875V10.1875C10 10.7398 10.4477 11.1875 11 11.1875H13C13.5523 11.1875 14 10.7398 14 10.1875V9.1875C14 8.63522 13.5523 8.1875 13 8.1875H11Z" fill="#FF9500"/>
</svg>
