<svg width="25" height="25" viewBox="0 0 25 25" fill="none" xmlns="http://www.w3.org/2000/svg">
<g clip-path="url(#clip0_521_5060)">
<path d="M15.7735 3.94925C16.4534 3.01548 16.9147 1.76169 16.793 0.480469C15.7978 0.53481 14.5834 1.20146 13.8803 2.13596C13.2489 2.93622 12.6902 4.2425 12.8358 5.47001C13.953 5.57643 15.0691 4.85682 15.7735 3.94925Z" fill="black"/>
<path d="M17.1926 5.48783C15.3715 5.37797 13.8231 6.53451 12.9535 6.53451C12.0834 6.53451 10.7516 5.54319 9.31127 5.5699C7.43655 5.59779 5.69702 6.67125 4.74567 8.37855C2.78892 11.794 4.22928 16.8603 6.13212 19.642C7.05619 21.0182 8.16983 22.5335 9.63724 22.4791C11.0237 22.424 11.5671 21.5699 13.2524 21.5699C14.9365 21.5699 15.426 22.4791 16.8936 22.4515C18.4156 22.424 19.3671 21.0747 20.2912 19.6971C21.3512 18.1283 21.7852 16.6135 21.8125 16.5304C21.7852 16.5028 18.8777 15.3733 18.8507 11.9862C18.8233 9.15015 21.1335 7.80117 21.2422 7.71751C19.9376 5.76351 17.8992 5.54319 17.1926 5.48783Z" fill="black"/>
</g>
<defs>
<clipPath id="clip0_521_5060">
<rect width="24" height="24" fill="white" transform="translate(0.8125 0.480469)"/>
</clipPath>
</defs>
</svg>
