<svg width="24" height="25" viewBox="0 0 24 25" fill="none" xmlns="http://www.w3.org/2000/svg">
<path opacity="0.75" fill-rule="evenodd" clip-rule="evenodd" d="M6 17.1719H3V19.1719C3 19.7242 3.44772 20.1719 4 20.1719H5C5.55228 20.1719 6 19.7242 6 19.1719V17.1719ZM21 17.1719H18V19.1719C18 19.7242 18.4477 20.1719 19 20.1719H20C20.5523 20.1719 21 19.7242 21 19.1719V17.1719Z" fill="#FF1919"/>
<path opacity="0.5" fill-rule="evenodd" clip-rule="evenodd" d="M6.68206 4.17188C5.84198 4.17188 5.09144 4.69685 4.80334 5.48599L2.70312 11.2388C3.25344 10.5864 4.077 10.1719 4.99737 10.1719H18.9974C19.9178 10.1719 20.7414 10.5864 21.2917 11.2389L19.1915 5.48599C18.9034 4.69686 18.1528 4.17188 17.3128 4.17188H6.68206Z" fill="#FF1919"/>
<path fill-rule="evenodd" clip-rule="evenodd" d="M1.85221 9.17188H3.50324L2.77751 11.1603C3.32648 10.5533 4.12029 10.1719 5.00318 10.1719H19.0032C20.6601 10.1719 22.0032 11.515 22.0032 13.1719V16.1719C22.0032 17.2765 21.1078 18.1719 20.0032 18.1719H4.00318C2.89861 18.1719 2.00318 17.2765 2.00318 16.1719V13.1719C2.00318 12.4035 2.29203 11.7027 2.76707 11.1719H2.35221C2.16283 11.1719 1.9897 11.0649 1.905 10.8955L1.405 9.89548C1.23877 9.56303 1.48052 9.17188 1.85221 9.17188ZM22.1943 9.17188H20.5433L21.2733 11.1719H21.6943C21.8837 11.1719 22.0568 11.0649 22.1415 10.8955L22.6415 9.89548C22.8078 9.56303 22.566 9.17188 22.1943 9.17188ZM7.00318 14.1719C7.00318 13.0673 6.10775 12.1719 5.00318 12.1719C4.4509 12.1719 4.00318 12.6196 4.00318 13.1719V13.6719C4.00318 14.5003 4.67475 15.1719 5.50318 15.1719H6.40318C6.73455 15.1719 7.00318 14.9033 7.00318 14.5719V14.1719ZM17.0032 14.1719C17.0032 13.0673 17.8986 12.1719 19.0032 12.1719C19.5555 12.1719 20.0032 12.6196 20.0032 13.1719V13.6719C20.0032 14.5003 19.3316 15.1719 18.5032 15.1719H17.6032C17.2718 15.1719 17.0032 14.9033 17.0032 14.5719V14.1719Z" fill="#FF1919"/>
<path opacity="0.25" fill-rule="evenodd" clip-rule="evenodd" d="M5 12.1719C6.10457 12.1719 7 13.0673 7 14.1719V14.5719C7 14.9033 6.73137 15.1719 6.4 15.1719H5.5C4.67157 15.1719 4 14.5003 4 13.6719V13.1719C4 12.6196 4.44772 12.1719 5 12.1719ZM19 12.1719C17.8954 12.1719 17 13.0673 17 14.1719V14.5719C17 14.9033 17.2686 15.1719 17.6 15.1719H18.5C19.3284 15.1719 20 14.5003 20 13.6719V13.1719C20 12.6196 19.5523 12.1719 19 12.1719Z" fill="#FF1919"/>
</svg>
