<svg width="33" height="33" viewBox="0 0 33 33" fill="none" xmlns="http://www.w3.org/2000/svg">
<rect x="0.8125" y="0.433594" width="32" height="32" rx="16" fill="white"/>
<g clip-path="url(#clip0_521_99)">
<path d="M13.3125 14.9336V12.9336H11.3125V17.4336C11.3125 17.7097 11.0886 17.9336 10.8125 17.9336C10.5364 17.9336 10.3125 17.7097 10.3125 17.4336V11.9336H13.3125C13.3125 9.52987 15.2648 7.93359 17.3125 7.93359C19.37 7.93359 21.3125 9.63915 21.3125 11.9336H24.3125V24.4336C24.3125 25.262 23.6409 25.9336 22.8125 25.9336H17.8125C17.5364 25.9336 17.3125 25.7097 17.3125 25.4336C17.3125 25.1575 17.5364 24.9336 17.8125 24.9336H22.8125C23.0886 24.9336 23.3125 24.7097 23.3125 24.4336V12.9336H21.3125V14.9336H20.3125V12.9336H14.3125V14.9336H13.3125ZM17.3125 8.93359C15.7602 8.93359 14.3125 10.1373 14.3125 11.9336H20.3125C20.3125 10.228 18.855 8.93359 17.3125 8.93359Z" fill="black"/>
<path d="M12.8125 18.9336C13.0886 18.9336 13.3125 19.1575 13.3125 19.4336V21.9336H15.8125C16.0886 21.9336 16.3125 22.1575 16.3125 22.4336C16.3125 22.7097 16.0886 22.9336 15.8125 22.9336H13.3125V25.4336C13.3125 25.7097 13.0886 25.9336 12.8125 25.9336C12.5364 25.9336 12.3125 25.7097 12.3125 25.4336V22.9336H9.8125C9.53636 22.9336 9.3125 22.7097 9.3125 22.4336C9.3125 22.1575 9.53636 21.9336 9.8125 21.9336H12.3125V19.4336C12.3125 19.1575 12.5364 18.9336 12.8125 18.9336Z" fill="black"/>
</g>
<rect x="1.3125" y="0.933594" width="31" height="31" rx="15.5" stroke="#76797F" stroke-opacity="0.3"/>
<defs>
<clipPath id="clip0_521_99">
<rect width="24" height="24" fill="white" transform="translate(5.3125 4.93359)"/>
</clipPath>
</defs>
</svg>
