<svg width="24" height="24" viewBox="0 0 24 24" fill="none" xmlns="http://www.w3.org/2000/svg">
<g clip-path="url(#clip0_622_4582)">
<path opacity="0.5" fill-rule="evenodd" clip-rule="evenodd" d="M3 11C3 6.02944 7.02944 2 12 2C16.9706 2 21 6.02944 21 11V16H19V11C19 7.13401 15.866 4 12 4C8.13401 4 5 7.13401 5 11V16H3V11Z" fill="#76797F"/>
<path fill-rule="evenodd" clip-rule="evenodd" d="M5 13C3.89543 13 3 13.8954 3 15V19C3 20.1046 3.89543 21 5 21H7C8.10457 21 9 20.1046 9 19V15C9 13.8954 8.10457 13 7 13H5ZM17 13C15.8954 13 15 13.8954 15 15V19C15 20.1046 15.8954 21 17 21H19C20.1046 21 21 20.1046 21 19V15C21 13.8954 20.1046 13 19 13H17Z" fill="#76797F"/>
</g>
<defs>
<clipPath id="clip0_622_4582">
<rect width="24" height="24" fill="white"/>
</clipPath>
</defs>
</svg>
