<svg width="33" height="33" viewBox="0 0 33 33" fill="none" xmlns="http://www.w3.org/2000/svg">
<path d="M32.8125 28.036C32.8125 30.5249 30.8569 32.4805 28.3681 32.4805H5.25694C2.76806 32.4805 0.8125 30.5249 0.8125 28.036V4.92491C0.8125 2.43602 2.76806 0.480469 5.25694 0.480469H28.3681C30.8569 0.480469 32.8125 2.43602 32.8125 4.92491V28.036Z" fill="#3B5998"/>
<path d="M26.0552 17.3698H23.033V28.9253H18.5885V17.3698H15.9219V13.8142H18.5885V11.6809C18.5885 8.56979 19.9219 6.70312 23.5663 6.70312H26.5885V10.2587H24.5441C23.1219 10.2587 23.033 10.792 23.033 11.7698V13.8142H26.5885L26.0552 17.3698Z" fill="white"/>
</svg>
