<svg width="24" height="25" viewBox="0 0 24 25" fill="none" xmlns="http://www.w3.org/2000/svg">
<path opacity="0.5" fill-rule="evenodd" clip-rule="evenodd" d="M6.57822 4.98438C6.27395 4.98438 6.04021 5.25387 6.08325 5.55509L7.94039 18.5551C7.97558 18.8014 8.18654 18.9844 8.43536 18.9844H15.5681C15.8169 18.9844 16.0278 18.8014 16.063 18.5551L17.1446 10.9844H6.85896L6.57324 8.98438H17.4303L17.9202 5.55509C17.9632 5.25387 17.7295 4.98438 17.4252 4.98438H6.57822Z" fill="#FF3388"/>
<path opacity="0.75" fill-rule="evenodd" clip-rule="evenodd" d="M6.85603 10.9844L6.57031 8.98438H17.4275L17.1418 10.9844H6.85603Z" fill="#FF3388"/>
<path d="M9 18.9844H15V21.4844C15 22.3128 14.3284 22.9844 13.5 22.9844H10.5C9.67157 22.9844 9 22.3128 9 21.4844V18.9844Z" fill="#FF3388"/>
</svg>
