<svg width="25" height="25" viewBox="0 0 25 25" fill="none" xmlns="http://www.w3.org/2000/svg">
<g clip-path="url(#clip0_521_5065)">
<g clip-path="url(#clip1_521_5065)">
<path d="M2.85718 0.882812C2.57724 1.16275 2.39062 1.6293 2.39062 2.18917V22.811C2.39062 23.3708 2.57724 23.8374 2.85718 24.1173L2.9505 24.2107L14.5211 12.64L2.85718 0.882812Z" fill="url(#paint0_linear_521_5065)"/>
<path d="M18.3492 16.4636L14.5234 12.6379L18.3492 8.71875L22.9214 11.3315C24.2278 12.078 24.2278 13.291 22.9214 14.0375L18.3492 16.4636Z" fill="url(#paint1_linear_521_5065)"/>
<path d="M18.3491 16.4625L14.5233 12.6367L2.85938 24.1141C3.32594 24.5806 3.97911 24.5806 4.81891 24.2074L18.3491 16.4625Z" fill="url(#paint2_linear_521_5065)"/>
<path d="M18.3491 8.71869L4.7256 0.787208C3.97911 0.32065 3.23263 0.413961 2.85938 0.880519L14.5233 12.6378L18.3491 8.71869Z" fill="url(#paint3_linear_521_5065)"/>
</g>
</g>
<defs>
<linearGradient id="paint0_linear_521_5065" x1="13.4266" y1="1.97381" x2="-2.23323" y2="17.6337" gradientUnits="userSpaceOnUse">
<stop stop-color="#00A0FF"/>
<stop offset="0.00657445" stop-color="#00A1FF"/>
<stop offset="0.2601" stop-color="#00BEFF"/>
<stop offset="0.5122" stop-color="#00D2FF"/>
<stop offset="0.7604" stop-color="#00DFFF"/>
<stop offset="1" stop-color="#00E3FF"/>
</linearGradient>
<linearGradient id="paint1_linear_521_5065" x1="24.6587" y1="12.5082" x2="2.08025" y2="12.5082" gradientUnits="userSpaceOnUse">
<stop stop-color="#FFE000"/>
<stop offset="0.4087" stop-color="#FFBD00"/>
<stop offset="0.7754" stop-color="#FFA500"/>
<stop offset="1" stop-color="#FF9C00"/>
</linearGradient>
<linearGradient id="paint2_linear_521_5065" x1="16.2537" y1="14.6482" x2="-4.98243" y2="35.8843" gradientUnits="userSpaceOnUse">
<stop stop-color="#FF3A44"/>
<stop offset="1" stop-color="#C31162"/>
</linearGradient>
<linearGradient id="paint3_linear_521_5065" x1="-0.103542" y1="-5.99122" x2="9.37934" y2="3.49156" gradientUnits="userSpaceOnUse">
<stop stop-color="#32A071"/>
<stop offset="0.0685" stop-color="#2DA771"/>
<stop offset="0.4762" stop-color="#15CF74"/>
<stop offset="0.8009" stop-color="#06E775"/>
<stop offset="1" stop-color="#00F076"/>
</linearGradient>
<clipPath id="clip0_521_5065">
<rect width="24" height="24" fill="white" transform="translate(0.390625 0.480469)"/>
</clipPath>
<clipPath id="clip1_521_5065">
<rect width="24" height="24" fill="white" transform="translate(0.390625 0.480469)"/>
</clipPath>
</defs>
</svg>
