<svg width="21" height="18" viewBox="0 0 21 18" fill="none" xmlns="http://www.w3.org/2000/svg">
<path fill-rule="evenodd" clip-rule="evenodd" d="M5.71094 1.58203C3.48029 1.58203 1.71094 3.39109 1.71094 5.58203C1.71094 6.51023 2.08778 7.52563 2.75964 8.59253C3.42786 9.65363 4.35242 10.7094 5.36221 11.7039C6.76863 13.089 8.24274 14.2699 9.38174 15.1823C9.68434 15.4247 9.96324 15.6481 10.2109 15.8514C10.4586 15.6481 10.7375 15.4247 11.0401 15.1823C12.1791 14.2699 13.6532 13.089 15.0596 11.7039C16.0694 10.7094 16.994 9.65363 17.6622 8.59253C18.3341 7.52563 18.7109 6.51023 18.7109 5.58203C18.7109 3.39101 16.9423 1.58203 14.7109 1.58203C12.5582 1.58203 11.2847 3.28429 10.9371 3.82945C10.5998 4.35858 9.82204 4.35856 9.48474 3.82945C9.13714 3.28428 7.86367 1.58203 5.71094 1.58203ZM0.210938 5.58203C0.210938 2.57297 2.64159 0.0820312 5.71094 0.0820312C7.94237 0.0820312 9.43584 1.3841 10.2109 2.29784C10.986 1.3841 12.4795 0.0820312 14.7109 0.0820312C17.7811 0.0820312 20.2109 2.57305 20.2109 5.58203C20.2109 6.90383 19.6815 8.20093 18.9315 9.39183C18.1778 10.5886 17.1649 11.7359 16.1122 12.7726C14.6538 14.2089 13.0189 15.5204 11.8611 16.4492C11.3758 16.8385 10.9743 17.1606 10.7048 17.3964C10.422 17.6439 9.99984 17.6439 9.71704 17.3964C9.44754 17.1606 9.04604 16.8385 8.56074 16.4492C7.40295 15.5204 5.76806 14.2089 4.30967 12.7726C3.25696 11.7359 2.24402 10.5886 1.49036 9.39183C0.740347 8.20093 0.210938 6.90383 0.210938 5.58203Z" fill="#141415"/>
</svg>
