<svg width="33" height="33" viewBox="0 0 33 33" fill="none" xmlns="http://www.w3.org/2000/svg">
<g clip-path="url(#clip0_521_5075)">
<path d="M16.8125 0.480469C30.1458 0.480469 32.8125 3.14714 32.8125 16.4805C32.8125 29.8138 30.1458 32.4805 16.8125 32.4805C3.47917 32.4805 0.8125 29.8138 0.8125 16.4805C0.8125 3.14714 3.47917 0.480469 16.8125 0.480469Z" fill="url(#paint0_linear_521_5075)"/>
<path fill-rule="evenodd" clip-rule="evenodd" d="M16.8097 8.83004C19.302 8.83004 19.5968 8.8397 20.5812 8.8845C21.4911 8.92597 21.9853 9.0779 22.3143 9.2057C22.75 9.37504 23.0608 9.5773 23.3876 9.9037C23.7144 10.2304 23.9166 10.5413 24.0856 10.977C24.2134 11.306 24.3653 11.8002 24.4068 12.7101C24.4516 13.6941 24.4612 13.9894 24.4612 16.4816C24.4612 18.9738 24.4516 19.2687 24.4068 20.2531C24.3653 21.163 24.2134 21.6572 24.0856 21.9862C23.9163 22.4219 23.714 22.7327 23.3876 23.0594C23.0608 23.3862 22.75 23.5885 22.3143 23.7574C21.9853 23.8852 21.4911 24.0372 20.5812 24.0786C19.5972 24.1235 19.302 24.1331 16.8097 24.1331C14.3175 24.1331 14.0222 24.1235 13.0382 24.0786C12.1283 24.0372 11.6341 23.8852 11.3051 23.7574C10.8694 23.5882 10.5586 23.3858 10.2318 23.0594C9.9051 22.7327 9.70276 22.4219 9.53383 21.9862C9.40603 21.6572 9.2541 21.163 9.21263 20.2531C9.16783 19.2691 9.15816 18.9738 9.15816 16.4816C9.15816 13.9894 9.16783 13.6944 9.21263 12.7101C9.2541 11.8002 9.40603 11.306 9.53383 10.977C9.70316 10.5413 9.90543 10.2304 10.2318 9.9037C10.5586 9.57697 10.8694 9.37464 11.3051 9.2057C11.6341 9.0779 12.1283 8.92597 13.0382 8.8845C14.0226 8.8397 14.3175 8.83004 16.8097 8.83004ZM16.8097 7.14844C14.2749 7.14844 13.957 7.15917 12.9615 7.20477C11.9683 7.24997 11.2899 7.40777 10.696 7.63857C10.0822 7.87717 9.56163 8.19617 9.04296 8.71517C8.5243 9.2339 8.2049 9.75437 7.9667 10.3679C7.7359 10.9618 7.5781 11.6402 7.5329 12.6334C7.4873 13.6289 7.47656 13.9468 7.47656 16.4816C7.47656 19.0164 7.4873 19.3343 7.5329 20.3298C7.5781 21.323 7.7359 22.0014 7.9667 22.5952C8.2053 23.2092 8.5243 23.7296 9.0433 24.2484C9.56236 24.7674 10.0825 25.0864 10.6964 25.325C11.2899 25.5558 11.9686 25.7136 12.9619 25.7588C13.9574 25.8044 14.2752 25.8151 16.8101 25.8151C19.3449 25.8151 19.6628 25.8044 20.6583 25.7588C21.6515 25.7136 22.3302 25.5558 22.9238 25.325C23.5376 25.0864 24.0582 24.7674 24.5768 24.2484C25.0959 23.7293 25.4149 23.2092 25.6534 22.5952C25.8842 22.0018 26.0421 21.323 26.0873 20.3298C26.1328 19.3343 26.1436 19.0164 26.1436 16.4816C26.1436 13.9468 26.1328 13.6289 26.0873 12.6334C26.0421 11.6402 25.8842 10.9614 25.6534 10.3679C25.4149 9.75404 25.0959 9.2335 24.5768 8.71484C24.0578 8.19577 23.5376 7.87677 22.9238 7.63824C22.3295 7.40777 21.6512 7.24997 20.6579 7.20477C19.6624 7.15917 19.3446 7.14844 16.8097 7.14844ZM16.8097 11.689C14.1626 11.689 12.0172 13.8349 12.0172 16.4816C12.0172 19.1283 14.163 21.2741 16.8097 21.2741C19.4564 21.2741 21.6022 19.1283 21.6022 16.4816C21.6022 13.8349 19.4568 11.689 16.8097 11.689ZM16.8097 19.5925C15.0914 19.5925 13.6988 18.1995 13.6988 16.4816C13.6988 14.7633 15.0918 13.3706 16.8097 13.3706C18.5276 13.3706 19.9206 14.7636 19.9206 16.4816C19.9206 18.1999 18.528 19.5925 16.8097 19.5925ZM22.9119 11.4994C22.9119 12.1179 22.4105 12.6193 21.792 12.6193C21.1734 12.6193 20.672 12.1179 20.672 11.4994C20.672 10.8808 21.1734 10.3794 21.792 10.3794C22.4105 10.3794 22.9119 10.8808 22.9119 11.4994Z" fill="white"/>
</g>
<defs>
<linearGradient id="paint0_linear_521_5075" x1="29.3528" y1="4.2514" x2="4.17529" y2="28.8041" gradientUnits="userSpaceOnUse">
<stop stop-color="#BA00B2"/>
<stop offset="0.5" stop-color="#F40000"/>
<stop offset="1" stop-color="#FFA800"/>
</linearGradient>
<clipPath id="clip0_521_5075">
<rect width="32" height="32" fill="white" transform="translate(0.8125 0.480469)"/>
</clipPath>
</defs>
</svg>
