<svg width="24" height="25" viewBox="0 0 24 25" fill="none" xmlns="http://www.w3.org/2000/svg">
<path opacity="0.75" fill-rule="evenodd" clip-rule="evenodd" d="M7.99963 3.59375H5V20.5938C5 21.146 5.44772 21.5938 6 21.5938H18C18.5523 21.5938 19 21.146 19 20.5938V3.59375H16.0004C15.0882 4.8082 13.6358 5.59375 12 5.59375C10.3642 5.59375 8.91184 4.8082 7.99963 3.59375Z" fill="#1AB2FF"/>
<path fill-rule="evenodd" clip-rule="evenodd" d="M1.89675 5.14654L5.00233 3.59375V9.84375L4.39675 10.1465C3.90277 10.3935 3.3021 10.1933 3.05511 9.69932L1.44954 6.48818C1.20255 5.9942 1.40278 5.39353 1.89675 5.14654ZM22.1077 5.14654L19.0022 3.59375V9.84375L19.6077 10.1465C20.1017 10.3935 20.7024 10.1933 20.9494 9.69932L22.5549 6.48818C22.8019 5.9942 22.6017 5.39353 22.1077 5.14654Z" fill="#1AB2FF"/>
</svg>
