<svg width="216" height="33" viewBox="0 0 216 33" fill="none" xmlns="http://www.w3.org/2000/svg">
<g clip-path="url(#clip0_521_5103)">
<mask id="mask0_521_5103" style="mask-type:luminance" maskUnits="userSpaceOnUse" x="0" y="0" width="216" height="33">
<path d="M215.812 0.0820312H0.8125V32.082H215.812V0.0820312Z" fill="white"/>
</mask>
<g mask="url(#mask0_521_5103)">
<path d="M185.443 10.031H189.859L184.279 16.3456L190.322 23.0342H185.893L180.062 16.6667V23.0342H176.312V6.00586H180.062V16.1234L185.443 10.031Z" fill="#7000FF"/>
<path d="M167.914 12.8246V10.0271H164.164V23.0303H167.914V17.2871C167.914 15.0611 169.53 13.6324 171.586 13.6324H174.038V9.75195H172.197C169.918 9.76253 168.27 11.6957 167.914 12.8246Z" fill="#7000FF"/>
<path fill-rule="evenodd" clip-rule="evenodd" d="M159.311 10.0274V18.4658C159.311 19.6017 159.632 19.8804 160.391 19.8769H160.984V23.0307H158.835C158.122 23.067 157.418 22.8653 156.832 22.4572C156.246 22.0491 155.813 21.4578 155.6 20.7765C154.687 22.4063 152.778 23.3341 150.697 23.3341C146.76 23.3341 144.241 19.9298 144.322 16.515C144.322 13.1389 146.548 9.77344 150.884 9.77344C153.402 9.77344 154.821 10.8741 155.628 12.0771L155.6 10.0274H159.311ZM147.942 16.5538C147.942 18.6104 149.547 20.0815 151.663 20.0815C153.865 20.0815 155.456 18.5928 155.456 16.5538C155.456 14.5147 153.865 13.0719 151.663 13.0719C149.533 13.0719 147.942 14.4971 147.942 16.5538Z" fill="#7000FF"/>
<path d="M131.147 12.199C132.036 10.742 133.824 9.77539 136.195 9.77539C140.227 9.77539 142.16 12.3189 142.16 15.4692V23.022H138.41V15.9877C138.41 14.5026 137.549 13.1655 135.747 13.1655C133.944 13.1655 133.055 14.4355 133.055 15.9454V23.0432H129.291V15.956C129.291 14.4461 128.346 13.1761 126.532 13.1761C124.719 13.1761 123.922 14.5026 123.922 15.9983V23.0326H120.172V15.4692C120.172 12.3189 122.225 9.77539 126.243 9.77539C128.282 9.77539 130.243 10.742 131.147 12.199Z" fill="#7000FF"/>
<path fill-rule="evenodd" clip-rule="evenodd" d="M197.633 9.77539C193.312 9.77539 190.578 12.1848 190.578 16.5416C190.578 20.8983 193.308 23.336 197.668 23.336C203.927 23.336 204.311 19.1027 204.311 19.1027H200.191C200.191 19.1027 199.873 20.4256 197.672 20.4256C195.273 20.4256 194.532 18.9828 194.532 17.554H204.551C204.6 17.2198 204.627 16.8828 204.632 16.5451C204.632 12.1848 201.888 9.77539 197.633 9.77539ZM194.585 15.2575C194.585 14.1992 195.291 12.6893 197.633 12.6893C199.976 12.6893 200.628 14.1992 200.628 15.2575H194.585Z" fill="#7000FF"/>
<path d="M215.817 9.78385V12.8036L211.732 12.8142V17.4002C211.732 19.2135 212.212 19.7814 213.496 19.7814H215.817V23.0657H213.496C209.76 23.0657 207.996 21.5312 207.996 17.8906V12.8177H206.102V10.6587L209.721 7.20508H211.746V9.78385H215.817Z" fill="#7000FF"/>
<path d="M104.44 9.76172C102.066 9.76172 100.278 10.7283 99.3888 12.1993C98.4892 10.7283 96.5278 9.76172 94.4853 9.76172C90.4813 9.76172 88.4141 12.3193 88.4141 15.4695V23.033H92.1676V15.9987C92.1676 14.4888 92.9613 13.1765 94.7781 13.1765C96.5949 13.1765 97.5473 14.4465 97.5473 15.9564V23.0436H101.297V15.9458C101.297 14.4359 102.186 13.1659 103.989 13.1659C105.792 13.1659 106.652 14.4888 106.652 15.9881V23.0224H110.402V15.4695C110.402 12.3193 108.469 9.76172 104.44 9.76172Z" fill="#7000FF"/>
<path d="M69.1146 10.0156V13.18L61.6252 19.8685H69.5626V23.0329H56.6406V19.8685L64.144 13.18H56.9334V10.0156H69.1146Z" fill="#7000FF"/>
<path d="M78.902 19.8556C80.6376 19.8556 81.8018 18.8996 81.8018 16.8359V10.0273H85.5553V16.977C85.5553 21.5172 81.7594 23.281 78.9126 23.281C76.0657 23.281 72.2734 21.5066 72.2734 16.977V10.0273H76.0375V16.8359C76.0375 18.8996 77.1663 19.8556 78.902 19.8556Z" fill="#7000FF"/>
<path d="M47.5348 19.8556C49.2563 19.8556 50.424 18.8996 50.424 16.8359V10.0273H54.174V16.977C54.174 21.5172 50.3711 23.281 47.5489 23.281C44.6844 23.281 40.9062 21.5066 40.9062 16.977V10.0273H44.6597V16.8359C44.6597 18.8996 45.8133 19.8556 47.5348 19.8556Z" fill="#7000FF"/>
<path d="M32.8055 16.0873C32.8048 19.2524 31.8657 22.3463 30.1071 24.9775C28.3485 27.6088 25.8493 29.6592 22.9257 30.8695C20.002 32.0798 16.7852 32.3955 13.6822 31.7769C10.5791 31.1582 7.72915 29.6328 5.49278 27.3937C3.25641 25.1546 1.73407 22.3024 1.11833 19.1978C0.502583 16.0931 0.821081 12.8756 2.03354 9.95204C3.246 7.02849 5.29796 4.53029 7.92988 2.77343C10.5618 1.01656 13.6555 0.0799415 16.8196 0.0820348C18.9206 0.0811066 21.0013 0.494515 22.9425 1.29861C24.8838 2.10271 26.6475 3.28173 28.1329 4.76824C29.6182 6.25474 30.7961 8.01957 31.599 9.9618C32.402 11.904 32.8144 13.9855 32.8125 16.0873H32.8055ZM18.6463 5.64173C18.0468 5.58529 17.4332 5.56059 16.8125 5.56059C16.1918 5.56059 15.5817 5.58529 14.9822 5.64173V14.1753H18.6463V5.64173ZM27.1101 10.6158C25.7747 10.1769 24.4101 9.83273 23.0263 9.58573V16.754C23.0263 21.9116 20.8398 24.6244 16.809 24.6244C12.7781 24.6244 10.5987 21.9116 10.5987 16.754V9.58573C9.21389 9.83316 7.84812 10.1773 6.51142 10.6158V16.7928C6.4861 18.1619 6.73378 19.5222 7.24 20.7944C7.74621 22.0665 8.50081 23.225 9.4597 24.2021C10.4186 25.1793 11.5626 25.9554 12.8247 26.4853C14.0869 27.0151 15.442 27.288 16.8108 27.288C18.1796 27.288 19.5346 27.0151 20.7968 26.4853C22.059 25.9554 23.2029 25.1793 24.1618 24.2021C25.1207 23.225 25.8753 22.0665 26.3815 20.7944C26.8877 19.5222 27.1354 18.1619 27.1101 16.7928V10.6158Z" fill="#7000FF"/>
</g>
</g>
<defs>
<clipPath id="clip0_521_5103">
<rect width="215" height="32" fill="white" transform="translate(0.8125 0.0820312)"/>
</clipPath>
</defs>
</svg>
