<svg width="24" height="25" viewBox="0 0 24 25" fill="none" xmlns="http://www.w3.org/2000/svg">
<path d="M2.00781 16.6035C2.39783 16.6953 2.79957 16.7845 3.50756 16.9077C4.9246 17.1541 6.89509 17.4003 9.10939 17.4003H21.6093C21.6093 17.9525 21.1616 18.4003 20.6093 18.4003H9.10939C6.82369 18.4003 4.79418 18.1464 3.33622 17.8929C2.60672 17.766 2.41467 17.6836 2.00781 17.5879V16.6035Z" fill="#FF1919"/>
<path opacity="0.25" d="M3.33207 16.893C4.79003 17.1465 6.81954 17.4004 9.10524 17.4004H21.6054V15.4004C15.361 15.4004 9.71984 16.9889 3.50341 15.9078C2.79541 15.7846 2.21484 15.6504 2.21484 15.6504L2.00781 16.6074C2.41467 16.7031 2.60256 16.7661 3.33207 16.893Z" fill="#FF1919"/>
<path opacity="0.75" fill-rule="evenodd" clip-rule="evenodd" d="M2.21094 15.6546C2.33963 15.1746 2.6053 14.65 3.10602 14.3997C3.10602 14.5663 3.50602 14.9005 5.10602 14.9005H8.36805C8.72178 14.9005 8.96311 14.5432 8.83174 14.2148L8.13235 12.4663C10.5597 11.5128 12.9657 10.461 13.106 9.89968C13.606 7.8999 14.606 6.89967 15.106 6.39968C15.7644 5.74125 17.3459 6.94774 18.196 7.59623C18.3666 7.72637 18.5077 7.83407 18.606 7.89968C18.8065 8.03349 19.1349 8.20724 19.4888 8.39445C20.2401 8.79187 21.106 9.24996 21.106 9.51548C21.106 9.66569 21.18 10.0531 21.271 10.5298C21.4167 11.2926 21.606 12.2845 21.606 12.8999V15.4037C19.44 15.4321 17.2858 15.6382 15.1361 15.844C11.2591 16.215 7.39641 16.5847 3.50415 15.9078C2.99658 15.8195 2.56073 15.7313 2.21094 15.6546ZM17.9995 14.3906C19.1041 14.3906 19.9995 13.4952 19.9995 12.3906C19.9995 11.286 19.1041 10.3906 17.9995 10.3906C16.8949 10.3906 15.9995 11.286 15.9995 12.3906C15.9995 13.4952 16.8949 14.3906 17.9995 14.3906Z" fill="#FF1919"/>
<path opacity="0.25" d="M5.10938 14.9008C3.50937 14.9008 3.10938 14.5675 3.10938 14.4008L8.13671 12.4707L8.83488 14.215C8.96634 14.5434 8.72501 14.9008 8.37123 14.9008H5.10938Z" fill="#FF1919"/>
<path opacity="0.25" d="M20 12.3906C20 13.4952 19.1046 14.3906 18 14.3906C16.8954 14.3906 16 13.4952 16 12.3906C16 11.286 16.8954 10.3906 18 10.3906C19.1046 10.3906 20 11.286 20 12.3906Z" fill="#FF1919"/>
</svg>
