<svg width="24" height="25" viewBox="0 0 24 25" fill="none" xmlns="http://www.w3.org/2000/svg">
<path fill-rule="evenodd" clip-rule="evenodd" d="M19 4.375H21C21.5523 4.375 22 4.82272 22 5.375V11.375C22 11.9273 21.5523 12.375 21 12.375H13V13.375H11V11.375C11 10.8227 11.4477 10.375 12 10.375H20V6.375H19V4.375Z" fill="#6226D9"/>
<path opacity="0.75" d="M10 14.375C10 13.8227 10.4477 13.375 11 13.375H13C13.5523 13.375 14 13.8227 14 14.375V21.375C14 21.9273 13.5523 22.375 13 22.375H11C10.4477 22.375 10 21.9273 10 21.375V14.375Z" fill="#6226D9"/>
<path opacity="0.75" d="M4 3.375C4 2.82272 4.44772 2.375 5 2.375H18C18.5523 2.375 19 2.82272 19 3.375V7.375C19 7.92728 18.5523 8.375 18 8.375H5C4.44772 8.375 4 7.92728 4 7.375V3.375Z" fill="#6226D9"/>
</svg>
