<svg width="24" height="25" viewBox="0 0 24 25" fill="none" xmlns="http://www.w3.org/2000/svg">
<path opacity="0.75" fill-rule="evenodd" clip-rule="evenodd" d="M12 22.239C12.1915 22.239 12.383 22.1733 12.5358 22.0417C12.9065 21.7227 13.369 21.3496 13.8889 20.9303C16.9501 18.4613 22 14.3882 22 10.2812C22 7.08125 19.45 4.78125 16.5 4.78125C13.65 4.78125 12 7.11523 12 7.11523V22.239Z" fill="#FF5319"/>
<path fill-rule="evenodd" clip-rule="evenodd" d="M12 7.11523C12 7.11523 10.3532 4.78125 7.5 4.78125C4.55 4.78125 2 7.08125 2 10.2812C2 14.3885 7.05204 18.4632 10.1127 20.9317C10.632 21.3505 11.094 21.7231 11.4642 22.0418C11.617 22.1733 11.8085 22.239 12 22.239V7.11523Z" fill="#FF5319"/>
</svg>
