<svg width="17" height="21" viewBox="0 0 17 21" fill="none" xmlns="http://www.w3.org/2000/svg">
<path fill-rule="evenodd" clip-rule="evenodd" d="M5.23438 4.58203C5.23438 2.96982 6.47458 1.58203 8.23438 1.58203C9.99417 1.58203 11.2344 2.96982 11.2344 4.58203V5.58203H5.23438V4.58203ZM3.73438 7.08203V9.58203H5.23438V7.08203H11.2344V9.58203H12.7344V7.08203H14.7344V17.832C14.7344 18.2462 14.3986 18.582 13.9844 18.582H2.48438C2.07017 18.582 1.73438 18.2462 1.73438 17.832V7.08203H3.73438ZM3.73438 5.58203V4.58203C3.73438 2.19424 5.59421 0.0820312 8.23438 0.0820312C10.8746 0.0820312 12.7344 2.19424 12.7344 4.58203V5.58203H15.4844H16.2344V6.33203V17.832C16.2344 19.0746 15.227 20.082 13.9844 20.082H2.48438C1.24173 20.082 0.234375 19.0746 0.234375 17.832V6.33203V5.58203H0.984375H3.73438Z" fill="#141415"/>
</svg>
