<svg width="24" height="25" viewBox="0 0 24 25" fill="none" xmlns="http://www.w3.org/2000/svg">
<path opacity="0.75" fill-rule="evenodd" clip-rule="evenodd" d="M7 18.7969C5.89543 18.7969 5 19.6923 5 20.7969V22.7969H19V20.7969C19 19.6923 18.1046 18.7969 17 18.7969H7ZM12 21.7969C12.5523 21.7969 13 21.3492 13 20.7969C13 20.2446 12.5523 19.7969 12 19.7969C11.4477 19.7969 11 20.2446 11 20.7969C11 21.3492 11.4477 21.7969 12 21.7969Z" fill="#6226D9"/>
<path opacity="0.25" d="M13 20.7969C13 21.3492 12.5523 21.7969 12 21.7969C11.4477 21.7969 11 21.3492 11 20.7969C11 20.2446 11.4477 19.7969 12 19.7969C12.5523 19.7969 13 20.2446 13 20.7969Z" fill="#6226D9"/>
<path opacity="0.5" fill-rule="evenodd" clip-rule="evenodd" d="M5 3.79688C3.89543 3.79688 3 4.6923 3 5.79688V10.7969C3 11.9015 3.89543 12.7969 5 12.7969H7V17.7969H17L19 3.79688H7H5ZM7 5.79688H5V10.7969H7V5.79688Z" fill="#6226D9"/>
<path fill-rule="evenodd" clip-rule="evenodd" d="M17.8571 11.7969L17.7143 12.7969H12V11.7969H17.8571ZM18.2857 8.79688L18.1429 9.79688H12V8.79688H18.2857ZM18.7143 5.79688L18.5714 6.79688H12V5.79688H18.7143Z" fill="#6226D9"/>
</svg>
