<svg width="33" height="33" viewBox="0 0 33 33" fill="none" xmlns="http://www.w3.org/2000/svg">
<g clip-path="url(#clip0_521_5079)">
<path d="M16.8125 0.480469C30.1458 0.480469 32.8125 3.14714 32.8125 16.4805C32.8125 29.8138 30.1458 32.4805 16.8125 32.4805C3.47917 32.4805 0.8125 29.8138 0.8125 16.4805C0.8125 3.14714 3.47917 0.480469 16.8125 0.480469Z" fill="url(#paint0_linear_521_5079)"/>
<path d="M8.67104 16.3477C13.3354 14.3155 16.4457 12.9757 18.0019 12.3285C22.4453 10.4803 23.3686 10.1593 23.9704 10.1485C24.1028 10.1464 24.3987 10.1792 24.5904 10.3347C24.7522 10.4661 24.7968 10.6434 24.8181 10.768C24.8394 10.8925 24.866 11.1762 24.8449 11.3978C24.6041 13.9278 23.5622 20.0674 23.0321 22.901C22.8078 24.1 22.3662 24.5021 21.9387 24.5414C21.0095 24.6269 20.304 23.9274 19.4041 23.3375C17.9958 22.4144 17.2003 21.8397 15.8334 20.9389C14.2537 19.898 15.2777 19.3258 16.178 18.3907C16.4136 18.1461 20.5075 14.4224 20.5867 14.0845C20.5966 14.0424 20.6058 13.8848 20.5122 13.8017C20.4187 13.7186 20.2806 13.747 20.1809 13.7696C20.0397 13.8016 17.7901 15.2885 13.4321 18.2304C12.7935 18.6688 12.2151 18.8825 11.6969 18.8713C11.1257 18.8589 10.0268 18.5482 9.20981 18.2827C8.20777 17.957 7.41142 17.7848 7.48077 17.2317C7.51689 16.9435 7.91365 16.6488 8.67104 16.3477Z" fill="white"/>
</g>
<defs>
<linearGradient id="paint0_linear_521_5079" x1="16.8125" y1="0.480469" x2="16.8125" y2="32.243" gradientUnits="userSpaceOnUse">
<stop stop-color="#2AABEE"/>
<stop offset="1" stop-color="#229ED9"/>
</linearGradient>
<clipPath id="clip0_521_5079">
<rect width="32" height="32" fill="white" transform="translate(0.8125 0.480469)"/>
</clipPath>
</defs>
</svg>
