<svg width="17" height="19" viewBox="0 0 17 19" fill="none" xmlns="http://www.w3.org/2000/svg">
<path fill-rule="evenodd" clip-rule="evenodd" d="M8.1875 0.0820312C5.97836 0.0820312 4.1875 1.87289 4.1875 4.08203V5.08203C4.1875 7.29113 5.97836 9.08203 8.1875 9.08203C10.3966 9.08203 12.1875 7.29113 12.1875 5.08203V4.08203C12.1875 1.87289 10.3966 0.0820312 8.1875 0.0820312ZM5.6875 4.08203C5.6875 2.70132 6.8068 1.58203 8.1875 1.58203C9.5682 1.58203 10.6875 2.70132 10.6875 4.08203V5.08203C10.6875 6.46274 9.5682 7.58203 8.1875 7.58203C6.8068 7.58203 5.6875 6.46274 5.6875 5.08203V4.08203ZM1.68982 16.4506C2.16071 13.3397 5.20553 11.582 8.1897 11.582C11.1733 11.582 14.2185 13.3397 14.6894 16.4506C14.6921 16.4686 14.69 16.4792 14.6875 16.4868C14.6845 16.4957 14.6778 16.5089 14.6634 16.524C14.6328 16.5561 14.5769 16.5859 14.5046 16.5859H1.87468C1.80237 16.5859 1.74648 16.5561 1.71588 16.524C1.70144 16.5089 1.69476 16.4957 1.69177 16.4868C1.68924 16.4792 1.68711 16.4685 1.68982 16.4506ZM8.1897 10.082C4.76071 10.082 0.827866 12.1224 0.206717 16.2261C0.0437365 17.3028 0.944767 18.0859 1.87468 18.0859H14.5046C15.4345 18.0859 16.3355 17.3028 16.1725 16.2261C15.5513 12.1224 11.6181 10.082 8.1897 10.082Z" fill="black"/>
</svg>
