<svg width="24" height="25" viewBox="0 0 24 25" fill="none" xmlns="http://www.w3.org/2000/svg">
<g clip-path="url(#clip0_622_4652)">
<path opacity="0.25" fill-rule="evenodd" clip-rule="evenodd" d="M9.5 21.5781H14.5C14.2239 21.5781 14 21.3542 14 21.0781V16.0781C14 15.802 13.7761 15.5781 13.5 15.5781H10.5C10.2239 15.5781 10 15.802 10 16.0781V21.0781C10 21.3542 9.77614 21.5781 9.5 21.5781Z" fill="#FF5319"/>
<path opacity="0.75" d="M4 13.5781L12 6.57812L20 13.5781V21.0781C20 21.3542 19.7761 21.5781 19.5 21.5781H14.5C14.2239 21.5781 14 21.3542 14 21.0781V16.0781C14 15.802 13.7761 15.5781 13.5 15.5781H10.5C10.2239 15.5781 10 15.802 10 16.0781V21.0781C10 21.3542 9.77614 21.5781 9.5 21.5781H4.5C4.22386 21.5781 4 21.3542 4 21.0781V13.5781Z" fill="#FF5319"/>
<path d="M2.32531 11.9554C2.14467 11.747 2.16688 11.4317 2.37496 11.2507L11.671 3.16378C11.8592 3.00008 12.1392 3.00009 12.3274 3.16381L21.6219 11.2507C21.83 11.4317 21.8522 11.747 21.6716 11.9554L21.0261 12.7C20.8452 12.9087 20.5292 12.9312 20.3206 12.7501L12.3269 5.81245C12.1389 5.64928 11.8595 5.64927 11.6715 5.81242L3.67624 12.7501C3.4676 12.9312 3.15167 12.9087 2.97073 12.7L2.32531 11.9554Z" fill="#FF5319"/>
</g>
<defs>
<clipPath id="clip0_622_4652">
<rect width="24" height="24" fill="white" transform="translate(0 0.578125)"/>
</clipPath>
</defs>
</svg>
