<svg width="33" height="33" viewBox="0 0 33 33" fill="none" xmlns="http://www.w3.org/2000/svg">
<path d="M32.8055 16.0873C32.8048 19.2524 31.8657 22.3463 30.1071 24.9775C28.3485 27.6088 25.8493 29.6592 22.9257 30.8695C20.002 32.0798 16.7852 32.3955 13.6822 31.7769C10.5791 31.1582 7.72915 29.6328 5.49278 27.3937C3.25641 25.1546 1.73407 22.3024 1.11833 19.1978C0.502583 16.0931 0.821081 12.8756 2.03354 9.95204C3.246 7.02849 5.29796 4.53029 7.92988 2.77343C10.5618 1.01656 13.6555 0.0799415 16.8196 0.0820348C18.9206 0.0811066 21.0013 0.494515 22.9425 1.29861C24.8838 2.10271 26.6475 3.28173 28.1329 4.76824C29.6182 6.25474 30.7961 8.01957 31.599 9.9618C32.402 11.904 32.8144 13.9855 32.8125 16.0873H32.8055ZM18.6463 5.64173C18.0468 5.58529 17.4332 5.56059 16.8125 5.56059C16.1918 5.56059 15.5817 5.58529 14.9822 5.64173V14.1753H18.6463V5.64173ZM27.1101 10.6158C25.7747 10.1769 24.4101 9.83273 23.0263 9.58573V16.754C23.0263 21.9116 20.8398 24.6244 16.809 24.6244C12.7781 24.6244 10.5987 21.9116 10.5987 16.754V9.58573C9.21389 9.83316 7.84812 10.1773 6.51142 10.6158V16.7928C6.4861 18.1619 6.73378 19.5222 7.24 20.7944C7.74621 22.0665 8.50081 23.225 9.4597 24.2021C10.4186 25.1793 11.5626 25.9554 12.8247 26.4853C14.0869 27.0151 15.442 27.288 16.8108 27.288C18.1796 27.288 19.5346 27.0151 20.7968 26.4853C22.059 25.9554 23.2029 25.1793 24.1618 24.2021C25.1207 23.225 25.8753 22.0665 26.3815 20.7944C26.8877 19.5222 27.1354 18.1619 27.1101 16.7928V10.6158Z" fill="#7000FF"/>
</svg>
